G04 #@! TF.FileFunction,Soldermask,Top*
%FSLAX46Y46*%
G04 Gerber Fmt 4.6, Leading zero omitted, Abs format (unit mm)*
G04 Created by KiCad (PCBNEW 4.0.6) date 12/17/17 22:53:38*
%MOMM*%
%LPD*%
G01*
G04 APERTURE LIST*
%ADD10C,0.100000*%
%ADD11C,0.010000*%
%ADD12R,2.200000X2.200000*%
%ADD13C,2.200000*%
%ADD14R,3.400000X24.400000*%
%ADD15R,15.400000X3.400000*%
%ADD16C,1.400000*%
%ADD17C,2.000000*%
%ADD18R,4.900000X4.900000*%
%ADD19C,0.900000*%
%ADD20R,2.000000X2.000000*%
%ADD21O,2.000000X2.000000*%
%ADD22R,2.100000X2.100000*%
%ADD23O,2.100000X2.100000*%
%ADD24C,2.150000*%
%ADD25R,3.900000X3.900000*%
%ADD26R,2.600000X2.600000*%
%ADD27O,2.600000X2.600000*%
%ADD28C,5.000000*%
%ADD29C,3.400000*%
%ADD30C,1.924000*%
%ADD31R,1.924000X1.924000*%
%ADD32C,1.900000*%
G04 APERTURE END LIST*
D10*
X-174810000Y-131730000D02*
X-174810000Y-131730000D01*
X-174810000Y-131730000D02*
X-174810000Y-131730000D01*
X-174810000Y-131730000D02*
X-174810000Y-131730000D01*
X-174810000Y-131730000D02*
X-174810000Y-131730000D01*
X-174810000Y-131730000D02*
X-174810000Y-131730000D01*
X-174810000Y-131730000D02*
X-174810000Y-131730000D01*
X-174810000Y-131730000D02*
X-174810000Y-131730000D01*
X-174810000Y-131730000D02*
X-174810000Y-131730000D01*
X-174810000Y-131730000D02*
X-174810000Y-131730000D01*
X-174810000Y-131730000D02*
X-174810000Y-131730000D01*
X-174810000Y-131730000D02*
X-174810000Y-131730000D01*
X-174810000Y-131730000D02*
X-174810000Y-131730000D01*
X-174810000Y-131730000D02*
X-174810000Y-131730000D01*
X-174810000Y-131730000D02*
X-174810000Y-131730000D01*
X-174810000Y-131730000D02*
X-174810000Y-131730000D01*
X-174810000Y-131730000D02*
X-174810000Y-131730000D01*
X-174810000Y-131730000D02*
X-174810000Y-131730000D01*
X-174810000Y-131730000D02*
X-174810000Y-131730000D01*
X-174810000Y-131730000D02*
X-174810000Y-131730000D01*
X-174810000Y-131730000D02*
X-174810000Y-131730000D01*
X-174810000Y-131730000D02*
X-174810000Y-131730000D01*
X-174810000Y-131730000D02*
X-174810000Y-131730000D01*
X-174810000Y-131730000D02*
X-174810000Y-131730000D01*
X-174810000Y-131730000D02*
X-174810000Y-131730000D01*
X-174810000Y-131730000D02*
X-174810000Y-131730000D01*
X-174810000Y-131730000D02*
X-174810000Y-131730000D01*
X-174810000Y-131730000D02*
X-174810000Y-131730000D01*
X-174810000Y-131730000D02*
X-174810000Y-131730000D01*
X-174810000Y-131730000D02*
X-174810000Y-131730000D01*
X-174810000Y-131730000D02*
X-174810000Y-131730000D01*
X-174810000Y-131730000D02*
X-174810000Y-131730000D01*
X-174810000Y-131730000D02*
X-174810000Y-131730000D01*
X-174810000Y-131730000D02*
X-174810000Y-131730000D01*
X-174810000Y-131730000D02*
X-174810000Y-131730000D01*
X-174810000Y-131730000D02*
X-174810000Y-131730000D01*
X-174810000Y-131730000D02*
X-174810000Y-131730000D01*
X-174810000Y-131730000D02*
X-174810000Y-131730000D01*
X-174810000Y-131730000D02*
X-174810000Y-131730000D01*
X-174810000Y-131730000D02*
X-174810000Y-131730000D01*
X-174810000Y-131730000D02*
X-174810000Y-131730000D01*
X-174810000Y-131730000D02*
X-174810000Y-131730000D01*
X-174810000Y-131730000D02*
X-174810000Y-131730000D01*
X-174810000Y-131730000D02*
X-174810000Y-131730000D01*
X-174810000Y-131730000D02*
X-174810000Y-131730000D01*
X-174810000Y-131730000D02*
X-174810000Y-131730000D01*
X-174810000Y-131730000D02*
X-174810000Y-131730000D01*
X-174810000Y-131730000D02*
X-174810000Y-131730000D01*
X-174810000Y-131730000D02*
X-174810000Y-131730000D01*
X-174810000Y-131730000D02*
X-174810000Y-131730000D01*
X-174810000Y-131730000D02*
X-174810000Y-131730000D01*
X-174810000Y-131730000D02*
X-174810000Y-131730000D01*
X-174810000Y-131730000D02*
X-174810000Y-131730000D01*
X-174810000Y-131730000D02*
X-174810000Y-131730000D01*
X-174810000Y-131730000D02*
X-174810000Y-131730000D01*
X-174810000Y-131730000D02*
X-174810000Y-131730000D01*
X-174810000Y-131730000D02*
X-174810000Y-131730000D01*
X-174810000Y-131730000D02*
X-174810000Y-131730000D01*
X-174810000Y-131730000D02*
X-174810000Y-131730000D01*
X-174810000Y-131730000D02*
X-174810000Y-131730000D01*
X-174810000Y-131730000D02*
X-174810000Y-131730000D01*
X-174810000Y-131730000D02*
X-174810000Y-131730000D01*
X-174810000Y-131730000D02*
X-174810000Y-131730000D01*
X-174810000Y-131730000D02*
X-174810000Y-131730000D01*
X-174810000Y-131730000D02*
X-174810000Y-131730000D01*
X-174810000Y-131730000D02*
X-174810000Y-131730000D01*
X-174810000Y-131730000D02*
X-174810000Y-131730000D01*
X-174810000Y-131730000D02*
X-174810000Y-131730000D01*
X-174810000Y-131730000D02*
X-174810000Y-131730000D01*
X-174810000Y-131730000D02*
X-174810000Y-131730000D01*
X-174810000Y-131730000D02*
X-174810000Y-131730000D01*
X-174810000Y-131730000D02*
X-174810000Y-131730000D01*
X-174810000Y-131730000D02*
X-174810000Y-131730000D01*
X-174810000Y-131730000D02*
X-174810000Y-131730000D01*
X-174810000Y-131730000D02*
X-174810000Y-131730000D01*
X-174810000Y-131730000D02*
X-174810000Y-131730000D01*
X-174810000Y-131730000D02*
X-174810000Y-131730000D01*
X-174810000Y-131730000D02*
X-174810000Y-131730000D01*
X-174810000Y-131730000D02*
X-174810000Y-131730000D01*
X-174810000Y-131730000D02*
X-174810000Y-131730000D01*
X-174810000Y-131730000D02*
X-174810000Y-131730000D01*
X-174810000Y-131730000D02*
X-174810000Y-131730000D01*
X-174810000Y-131730000D02*
X-174810000Y-131730000D01*
X-174810000Y-131730000D02*
X-174810000Y-131730000D01*
X-174810000Y-131730000D02*
X-174810000Y-131730000D01*
X-174810000Y-131730000D02*
X-174810000Y-131730000D01*
X-174810000Y-131730000D02*
X-174810000Y-131730000D01*
X-174810000Y-131730000D02*
X-174810000Y-131730000D01*
X-174810000Y-131730000D02*
X-174810000Y-131730000D01*
X-174810000Y-131730000D02*
X-174810000Y-131730000D01*
X-174810000Y-131730000D02*
X-174810000Y-131730000D01*
X-174810000Y-131730000D02*
X-174810000Y-131730000D01*
X-174810000Y-131730000D02*
X-174810000Y-131730000D01*
X-174810000Y-131730000D02*
X-174810000Y-131730000D01*
X-174810000Y-131730000D02*
X-174810000Y-131730000D01*
X-174810000Y-131730000D02*
X-174810000Y-131730000D01*
X-174810000Y-131730000D02*
X-174810000Y-131730000D01*
X-174810000Y-131730000D02*
X-174810000Y-131730000D01*
X-174810000Y-131730000D02*
X-174810000Y-131730000D01*
X-174810000Y-131730000D02*
X-174810000Y-131730000D01*
X-174810000Y-131730000D02*
X-174810000Y-131730000D01*
X-174810000Y-131730000D02*
X-174810000Y-131730000D01*
X-174810000Y-131730000D02*
X-174810000Y-131730000D01*
X-174810000Y-131730000D02*
X-174810000Y-131730000D01*
X-174810000Y-131730000D02*
X-174810000Y-131730000D01*
X-174810000Y-131730000D02*
X-174810000Y-131730000D01*
X-174810000Y-131730000D02*
X-174810000Y-131730000D01*
X-174810000Y-131730000D02*
X-174810000Y-131730000D01*
X-174810000Y-131730000D02*
X-174810000Y-131730000D01*
X-174810000Y-131730000D02*
X-174810000Y-131730000D01*
X-174810000Y-131730000D02*
X-174810000Y-131730000D01*
X-174810000Y-131730000D02*
X-174810000Y-131730000D01*
X-174810000Y-131730000D02*
X-174810000Y-131730000D01*
X-174810000Y-131730000D02*
X-174810000Y-131730000D01*
X-174810000Y-131730000D02*
X-174810000Y-131730000D01*
X-174810000Y-131730000D02*
X-174810000Y-131730000D01*
X-174810000Y-131730000D02*
X-174810000Y-131730000D01*
X-174810000Y-131730000D02*
X-174810000Y-131730000D01*
X-174810000Y-131730000D02*
X-174810000Y-131730000D01*
X-174810000Y-131730000D02*
X-174810000Y-131730000D01*
X-174810000Y-131730000D02*
X-174810000Y-131730000D01*
X-174810000Y-131730000D02*
X-174810000Y-131730000D01*
X-174810000Y-131730000D02*
X-174810000Y-131730000D01*
X-174810000Y-131730000D02*
X-174810000Y-131730000D01*
X-174810000Y-131730000D02*
X-174810000Y-131730000D01*
X-174810000Y-131730000D02*
X-174810000Y-131730000D01*
X-174810000Y-131730000D02*
X-174810000Y-131730000D01*
X-174810000Y-131730000D02*
X-174810000Y-131730000D01*
X-174810000Y-131730000D02*
X-174810000Y-131730000D01*
X-174810000Y-131730000D02*
X-174810000Y-131730000D01*
X-174810000Y-131730000D02*
X-174810000Y-131730000D01*
X-174810000Y-131730000D02*
X-174810000Y-131730000D01*
X-174810000Y-131730000D02*
X-174810000Y-131730000D01*
X-174810000Y-131730000D02*
X-174810000Y-131730000D01*
X-174810000Y-131730000D02*
X-174810000Y-131730000D01*
X-174810000Y-131730000D02*
X-174810000Y-131730000D01*
X-174810000Y-131730000D02*
X-174810000Y-131730000D01*
X-174810000Y-131730000D02*
X-174810000Y-131730000D01*
X-174810000Y-131730000D02*
X-174810000Y-131730000D01*
X-174810000Y-131730000D02*
X-174810000Y-131730000D01*
X-174810000Y-131730000D02*
X-174810000Y-131730000D01*
X-174810000Y-131730000D02*
X-174810000Y-131730000D01*
X-174810000Y-131730000D02*
X-174810000Y-131730000D01*
X-174810000Y-131730000D02*
X-174810000Y-131730000D01*
X-174810000Y-131730000D02*
X-174810000Y-131730000D01*
X-174810000Y-131730000D02*
X-174810000Y-131730000D01*
X-174810000Y-131730000D02*
X-174810000Y-131730000D01*
X-174810000Y-131730000D02*
X-174810000Y-131730000D01*
X-174810000Y-131730000D02*
X-174810000Y-131730000D01*
X-174810000Y-131730000D02*
X-174810000Y-131730000D01*
X-174810000Y-131730000D02*
X-174810000Y-131730000D01*
X-174810000Y-131730000D02*
X-174810000Y-131730000D01*
X-174810000Y-131730000D02*
X-174810000Y-131730000D01*
X-174810000Y-131730000D02*
X-174810000Y-131730000D01*
X-174810000Y-131730000D02*
X-174810000Y-131730000D01*
X-174810000Y-131730000D02*
X-174810000Y-131730000D01*
X-174810000Y-131730000D02*
X-174810000Y-131730000D01*
X-174810000Y-131730000D02*
X-174810000Y-131730000D01*
X-174810000Y-131730000D02*
X-174810000Y-131730000D01*
X-174810000Y-131730000D02*
X-174810000Y-131730000D01*
X-174810000Y-131730000D02*
X-174810000Y-131730000D01*
X-174810000Y-131730000D02*
X-174810000Y-131730000D01*
X-174810000Y-131730000D02*
X-174810000Y-131730000D01*
X-174810000Y-131730000D02*
X-174810000Y-131730000D01*
X-174810000Y-131730000D02*
X-174810000Y-131730000D01*
X-174810000Y-131730000D02*
X-174810000Y-131730000D01*
X-174810000Y-131730000D02*
X-174810000Y-131730000D01*
X-174810000Y-131730000D02*
X-174810000Y-131730000D01*
X-174810000Y-131730000D02*
X-174810000Y-131730000D01*
X-174810000Y-131730000D02*
X-174810000Y-131730000D01*
X-174810000Y-131730000D02*
X-174810000Y-131730000D01*
X-174810000Y-131730000D02*
X-174810000Y-131730000D01*
X-174810000Y-131730000D02*
X-174810000Y-131730000D01*
X-174810000Y-131730000D02*
X-174810000Y-131730000D01*
X-174810000Y-131730000D02*
X-174810000Y-131730000D01*
X-174810000Y-131730000D02*
X-174810000Y-131730000D01*
X-174810000Y-131730000D02*
X-174810000Y-131730000D01*
X-174810000Y-131730000D02*
X-174810000Y-131730000D01*
X-174810000Y-131730000D02*
X-174810000Y-131730000D01*
X-174810000Y-131730000D02*
X-174810000Y-131730000D01*
X-174810000Y-131730000D02*
X-174810000Y-131730000D01*
X-174810000Y-131730000D02*
X-174810000Y-131730000D01*
X-174810000Y-131730000D02*
X-174810000Y-131730000D01*
D11*
G36*
X48947501Y-50023398D02*
X49304666Y-50372018D01*
X49304666Y-51143705D01*
X49114008Y-51330821D01*
X48923351Y-51517938D01*
X49114008Y-51711506D01*
X49304666Y-51905075D01*
X49304666Y-52670315D01*
X48950005Y-53016491D01*
X48595345Y-53362667D01*
X48029255Y-53359983D01*
X47811982Y-53356381D01*
X47619813Y-53348433D01*
X47471493Y-53337249D01*
X47385761Y-53323941D01*
X47378500Y-53321438D01*
X47313359Y-53276752D01*
X47207342Y-53185888D01*
X47077767Y-53064169D01*
X46997500Y-52984310D01*
X46701166Y-52683045D01*
X46701166Y-51796333D01*
X47272666Y-51796333D01*
X47272666Y-52122632D01*
X47274567Y-52289512D01*
X47285999Y-52398425D01*
X47315559Y-52476064D01*
X47371840Y-52549124D01*
X47429424Y-52609465D01*
X47586182Y-52770000D01*
X48398038Y-52770000D01*
X48576185Y-52588481D01*
X48702931Y-52436497D01*
X48753741Y-52304697D01*
X48728617Y-52175816D01*
X48627558Y-52032592D01*
X48576185Y-51977852D01*
X48398038Y-51796333D01*
X47272666Y-51796333D01*
X46701166Y-51796333D01*
X46701166Y-51267534D01*
X46701458Y-50881680D01*
X46702633Y-50571634D01*
X46705140Y-50328539D01*
X46706442Y-50272333D01*
X47272666Y-50272333D01*
X47272666Y-51246000D01*
X48391295Y-51246000D01*
X48572814Y-51067852D01*
X48702129Y-50917870D01*
X48754803Y-50786134D01*
X48730925Y-50656303D01*
X48630586Y-50512038D01*
X48576185Y-50453852D01*
X48398038Y-50272333D01*
X47272666Y-50272333D01*
X46706442Y-50272333D01*
X46709427Y-50143538D01*
X46715943Y-50007774D01*
X46725135Y-49912389D01*
X46737453Y-49848526D01*
X46753346Y-49807328D01*
X46773260Y-49779938D01*
X46776667Y-49776428D01*
X46810756Y-49750529D01*
X46862114Y-49730809D01*
X46942318Y-49716184D01*
X47062950Y-49705566D01*
X47235589Y-49697870D01*
X47471813Y-49692008D01*
X47721252Y-49687805D01*
X48590336Y-49674779D01*
X48947501Y-50023398D01*
X48947501Y-50023398D01*
G37*
X48947501Y-50023398D02*
X49304666Y-50372018D01*
X49304666Y-51143705D01*
X49114008Y-51330821D01*
X48923351Y-51517938D01*
X49114008Y-51711506D01*
X49304666Y-51905075D01*
X49304666Y-52670315D01*
X48950005Y-53016491D01*
X48595345Y-53362667D01*
X48029255Y-53359983D01*
X47811982Y-53356381D01*
X47619813Y-53348433D01*
X47471493Y-53337249D01*
X47385761Y-53323941D01*
X47378500Y-53321438D01*
X47313359Y-53276752D01*
X47207342Y-53185888D01*
X47077767Y-53064169D01*
X46997500Y-52984310D01*
X46701166Y-52683045D01*
X46701166Y-51796333D01*
X47272666Y-51796333D01*
X47272666Y-52122632D01*
X47274567Y-52289512D01*
X47285999Y-52398425D01*
X47315559Y-52476064D01*
X47371840Y-52549124D01*
X47429424Y-52609465D01*
X47586182Y-52770000D01*
X48398038Y-52770000D01*
X48576185Y-52588481D01*
X48702931Y-52436497D01*
X48753741Y-52304697D01*
X48728617Y-52175816D01*
X48627558Y-52032592D01*
X48576185Y-51977852D01*
X48398038Y-51796333D01*
X47272666Y-51796333D01*
X46701166Y-51796333D01*
X46701166Y-51267534D01*
X46701458Y-50881680D01*
X46702633Y-50571634D01*
X46705140Y-50328539D01*
X46706442Y-50272333D01*
X47272666Y-50272333D01*
X47272666Y-51246000D01*
X48391295Y-51246000D01*
X48572814Y-51067852D01*
X48702129Y-50917870D01*
X48754803Y-50786134D01*
X48730925Y-50656303D01*
X48630586Y-50512038D01*
X48576185Y-50453852D01*
X48398038Y-50272333D01*
X47272666Y-50272333D01*
X46706442Y-50272333D01*
X46709427Y-50143538D01*
X46715943Y-50007774D01*
X46725135Y-49912389D01*
X46737453Y-49848526D01*
X46753346Y-49807328D01*
X46773260Y-49779938D01*
X46776667Y-49776428D01*
X46810756Y-49750529D01*
X46862114Y-49730809D01*
X46942318Y-49716184D01*
X47062950Y-49705566D01*
X47235589Y-49697870D01*
X47471813Y-49692008D01*
X47721252Y-49687805D01*
X48590336Y-49674779D01*
X48947501Y-50023398D01*
G36*
X51409137Y-49679971D02*
X51669198Y-49681397D01*
X51865837Y-49684718D01*
X52009677Y-49690703D01*
X52111339Y-49700124D01*
X52181446Y-49713753D01*
X52230620Y-49732361D01*
X52269484Y-49756718D01*
X52283457Y-49767406D01*
X52376865Y-49884815D01*
X52392316Y-50015805D01*
X52329808Y-50140924D01*
X52283457Y-50184594D01*
X52241809Y-50213705D01*
X52193006Y-50235566D01*
X52125099Y-50251210D01*
X52026135Y-50261668D01*
X51884166Y-50267972D01*
X51687241Y-50271155D01*
X51423409Y-50272248D01*
X51267457Y-50272333D01*
X50363000Y-50272333D01*
X50363000Y-51246000D01*
X51313099Y-51246000D01*
X51620239Y-51246245D01*
X51853762Y-51247662D01*
X52024717Y-51251275D01*
X52144153Y-51258106D01*
X52223119Y-51269179D01*
X52272665Y-51285517D01*
X52303839Y-51308143D01*
X52327692Y-51338081D01*
X52329099Y-51340086D01*
X52389205Y-51485688D01*
X52370031Y-51625933D01*
X52310333Y-51711667D01*
X52277939Y-51739381D01*
X52236017Y-51760300D01*
X52173167Y-51775373D01*
X52077993Y-51785551D01*
X51939095Y-51791782D01*
X51745076Y-51795018D01*
X51484537Y-51796207D01*
X51294333Y-51796333D01*
X50363000Y-51796333D01*
X50363000Y-52126408D01*
X50364673Y-52293742D01*
X50375416Y-52402441D01*
X50403813Y-52478537D01*
X50458446Y-52548062D01*
X50523534Y-52613242D01*
X50684069Y-52770000D01*
X51446885Y-52770000D01*
X51720421Y-52770614D01*
X51922276Y-52773331D01*
X52065435Y-52779459D01*
X52162880Y-52790310D01*
X52227595Y-52807192D01*
X52272563Y-52831416D01*
X52302350Y-52856316D01*
X52382555Y-52980723D01*
X52387457Y-53117718D01*
X52318138Y-53243362D01*
X52283457Y-53274927D01*
X52239510Y-53305498D01*
X52188169Y-53327958D01*
X52116619Y-53343489D01*
X52012043Y-53353276D01*
X51861624Y-53358503D01*
X51652547Y-53360355D01*
X51371996Y-53360014D01*
X51362707Y-53359983D01*
X51104331Y-53357363D01*
X50870980Y-53351685D01*
X50677490Y-53343572D01*
X50538693Y-53333651D01*
X50469423Y-53322546D01*
X50468833Y-53322310D01*
X50404741Y-53278080D01*
X50299591Y-53186784D01*
X50169973Y-53063363D01*
X50077250Y-52969672D01*
X49770333Y-52652024D01*
X49770333Y-49887485D01*
X49978151Y-49679667D01*
X51075033Y-49679667D01*
X51409137Y-49679971D01*
X51409137Y-49679971D01*
G37*
X51409137Y-49679971D02*
X51669198Y-49681397D01*
X51865837Y-49684718D01*
X52009677Y-49690703D01*
X52111339Y-49700124D01*
X52181446Y-49713753D01*
X52230620Y-49732361D01*
X52269484Y-49756718D01*
X52283457Y-49767406D01*
X52376865Y-49884815D01*
X52392316Y-50015805D01*
X52329808Y-50140924D01*
X52283457Y-50184594D01*
X52241809Y-50213705D01*
X52193006Y-50235566D01*
X52125099Y-50251210D01*
X52026135Y-50261668D01*
X51884166Y-50267972D01*
X51687241Y-50271155D01*
X51423409Y-50272248D01*
X51267457Y-50272333D01*
X50363000Y-50272333D01*
X50363000Y-51246000D01*
X51313099Y-51246000D01*
X51620239Y-51246245D01*
X51853762Y-51247662D01*
X52024717Y-51251275D01*
X52144153Y-51258106D01*
X52223119Y-51269179D01*
X52272665Y-51285517D01*
X52303839Y-51308143D01*
X52327692Y-51338081D01*
X52329099Y-51340086D01*
X52389205Y-51485688D01*
X52370031Y-51625933D01*
X52310333Y-51711667D01*
X52277939Y-51739381D01*
X52236017Y-51760300D01*
X52173167Y-51775373D01*
X52077993Y-51785551D01*
X51939095Y-51791782D01*
X51745076Y-51795018D01*
X51484537Y-51796207D01*
X51294333Y-51796333D01*
X50363000Y-51796333D01*
X50363000Y-52126408D01*
X50364673Y-52293742D01*
X50375416Y-52402441D01*
X50403813Y-52478537D01*
X50458446Y-52548062D01*
X50523534Y-52613242D01*
X50684069Y-52770000D01*
X51446885Y-52770000D01*
X51720421Y-52770614D01*
X51922276Y-52773331D01*
X52065435Y-52779459D01*
X52162880Y-52790310D01*
X52227595Y-52807192D01*
X52272563Y-52831416D01*
X52302350Y-52856316D01*
X52382555Y-52980723D01*
X52387457Y-53117718D01*
X52318138Y-53243362D01*
X52283457Y-53274927D01*
X52239510Y-53305498D01*
X52188169Y-53327958D01*
X52116619Y-53343489D01*
X52012043Y-53353276D01*
X51861624Y-53358503D01*
X51652547Y-53360355D01*
X51371996Y-53360014D01*
X51362707Y-53359983D01*
X51104331Y-53357363D01*
X50870980Y-53351685D01*
X50677490Y-53343572D01*
X50538693Y-53333651D01*
X50469423Y-53322546D01*
X50468833Y-53322310D01*
X50404741Y-53278080D01*
X50299591Y-53186784D01*
X50169973Y-53063363D01*
X50077250Y-52969672D01*
X49770333Y-52652024D01*
X49770333Y-49887485D01*
X49978151Y-49679667D01*
X51075033Y-49679667D01*
X51409137Y-49679971D01*
G36*
X55133361Y-50031638D02*
X55485333Y-50383609D01*
X55485333Y-51762615D01*
X55485043Y-52142911D01*
X55483851Y-52447691D01*
X55481272Y-52686102D01*
X55476824Y-52867292D01*
X55470020Y-53000411D01*
X55460378Y-53094606D01*
X55447413Y-53159026D01*
X55430642Y-53202820D01*
X55409579Y-53235135D01*
X55407263Y-53238032D01*
X55297966Y-53313478D01*
X55160110Y-53333564D01*
X55029930Y-53296188D01*
X54985900Y-53262490D01*
X54958280Y-53223359D01*
X54937817Y-53160656D01*
X54923083Y-53061548D01*
X54912652Y-52913199D01*
X54905097Y-52702774D01*
X54900401Y-52493435D01*
X54886968Y-51796333D01*
X53411000Y-51796333D01*
X53410351Y-52484250D01*
X53408298Y-52719229D01*
X53403040Y-52925572D01*
X53395241Y-53087921D01*
X53385566Y-53190921D01*
X53378601Y-53218746D01*
X53313037Y-53277387D01*
X53215025Y-53333760D01*
X53129904Y-53362320D01*
X53123158Y-53362667D01*
X53065544Y-53338614D01*
X52978966Y-53280188D01*
X52972209Y-53274927D01*
X52860666Y-53187188D01*
X52860666Y-50272333D01*
X53411000Y-50272333D01*
X53411000Y-51246000D01*
X54892666Y-51246000D01*
X54892666Y-50919701D01*
X54890765Y-50752821D01*
X54879333Y-50643908D01*
X54849774Y-50566269D01*
X54793492Y-50493209D01*
X54735908Y-50432868D01*
X54579150Y-50272333D01*
X53411000Y-50272333D01*
X52860666Y-50272333D01*
X52860666Y-49855145D01*
X52972209Y-49767406D01*
X53015247Y-49737453D01*
X53065744Y-49715201D01*
X53136133Y-49699512D01*
X53238850Y-49689253D01*
X53386329Y-49683285D01*
X53591004Y-49680474D01*
X53865312Y-49679682D01*
X53932570Y-49679667D01*
X54781390Y-49679667D01*
X55133361Y-50031638D01*
X55133361Y-50031638D01*
G37*
X55133361Y-50031638D02*
X55485333Y-50383609D01*
X55485333Y-51762615D01*
X55485043Y-52142911D01*
X55483851Y-52447691D01*
X55481272Y-52686102D01*
X55476824Y-52867292D01*
X55470020Y-53000411D01*
X55460378Y-53094606D01*
X55447413Y-53159026D01*
X55430642Y-53202820D01*
X55409579Y-53235135D01*
X55407263Y-53238032D01*
X55297966Y-53313478D01*
X55160110Y-53333564D01*
X55029930Y-53296188D01*
X54985900Y-53262490D01*
X54958280Y-53223359D01*
X54937817Y-53160656D01*
X54923083Y-53061548D01*
X54912652Y-52913199D01*
X54905097Y-52702774D01*
X54900401Y-52493435D01*
X54886968Y-51796333D01*
X53411000Y-51796333D01*
X53410351Y-52484250D01*
X53408298Y-52719229D01*
X53403040Y-52925572D01*
X53395241Y-53087921D01*
X53385566Y-53190921D01*
X53378601Y-53218746D01*
X53313037Y-53277387D01*
X53215025Y-53333760D01*
X53129904Y-53362320D01*
X53123158Y-53362667D01*
X53065544Y-53338614D01*
X52978966Y-53280188D01*
X52972209Y-53274927D01*
X52860666Y-53187188D01*
X52860666Y-50272333D01*
X53411000Y-50272333D01*
X53411000Y-51246000D01*
X54892666Y-51246000D01*
X54892666Y-50919701D01*
X54890765Y-50752821D01*
X54879333Y-50643908D01*
X54849774Y-50566269D01*
X54793492Y-50493209D01*
X54735908Y-50432868D01*
X54579150Y-50272333D01*
X53411000Y-50272333D01*
X52860666Y-50272333D01*
X52860666Y-49855145D01*
X52972209Y-49767406D01*
X53015247Y-49737453D01*
X53065744Y-49715201D01*
X53136133Y-49699512D01*
X53238850Y-49689253D01*
X53386329Y-49683285D01*
X53591004Y-49680474D01*
X53865312Y-49679682D01*
X53932570Y-49679667D01*
X54781390Y-49679667D01*
X55133361Y-50031638D01*
G36*
X57610938Y-49680166D02*
X57870574Y-49682107D01*
X58066322Y-49686148D01*
X58208571Y-49692950D01*
X58307708Y-49703174D01*
X58374122Y-49717480D01*
X58418199Y-49736529D01*
X58442171Y-49753750D01*
X58539963Y-49878874D01*
X58558449Y-50012935D01*
X58496479Y-50141898D01*
X58475812Y-50164369D01*
X58420835Y-50213743D01*
X58362052Y-50245233D01*
X58279744Y-50262831D01*
X58154192Y-50270531D01*
X57965679Y-50272325D01*
X57942590Y-50272333D01*
X57517333Y-50272333D01*
X57516685Y-51722250D01*
X57515652Y-52065549D01*
X57513013Y-52382535D01*
X57508982Y-52663103D01*
X57503774Y-52897151D01*
X57497602Y-53074576D01*
X57490681Y-53185273D01*
X57484935Y-53218746D01*
X57419370Y-53277387D01*
X57321358Y-53333760D01*
X57236237Y-53362320D01*
X57229492Y-53362667D01*
X57171878Y-53338614D01*
X57085300Y-53280188D01*
X57078542Y-53274927D01*
X56967000Y-53187188D01*
X56967000Y-50272333D01*
X56543666Y-50272333D01*
X56301686Y-50264581D01*
X56132371Y-50237823D01*
X56024843Y-50186809D01*
X55968224Y-50106290D01*
X55951639Y-49991016D01*
X55951648Y-49986583D01*
X55956415Y-49900808D01*
X55975455Y-49832650D01*
X56017462Y-49780096D01*
X56091133Y-49741131D01*
X56205164Y-49713742D01*
X56368250Y-49695916D01*
X56589088Y-49685638D01*
X56876373Y-49680895D01*
X57238802Y-49679673D01*
X57277027Y-49679667D01*
X57610938Y-49680166D01*
X57610938Y-49680166D01*
G37*
X57610938Y-49680166D02*
X57870574Y-49682107D01*
X58066322Y-49686148D01*
X58208571Y-49692950D01*
X58307708Y-49703174D01*
X58374122Y-49717480D01*
X58418199Y-49736529D01*
X58442171Y-49753750D01*
X58539963Y-49878874D01*
X58558449Y-50012935D01*
X58496479Y-50141898D01*
X58475812Y-50164369D01*
X58420835Y-50213743D01*
X58362052Y-50245233D01*
X58279744Y-50262831D01*
X58154192Y-50270531D01*
X57965679Y-50272325D01*
X57942590Y-50272333D01*
X57517333Y-50272333D01*
X57516685Y-51722250D01*
X57515652Y-52065549D01*
X57513013Y-52382535D01*
X57508982Y-52663103D01*
X57503774Y-52897151D01*
X57497602Y-53074576D01*
X57490681Y-53185273D01*
X57484935Y-53218746D01*
X57419370Y-53277387D01*
X57321358Y-53333760D01*
X57236237Y-53362320D01*
X57229492Y-53362667D01*
X57171878Y-53338614D01*
X57085300Y-53280188D01*
X57078542Y-53274927D01*
X56967000Y-53187188D01*
X56967000Y-50272333D01*
X56543666Y-50272333D01*
X56301686Y-50264581D01*
X56132371Y-50237823D01*
X56024843Y-50186809D01*
X55968224Y-50106290D01*
X55951639Y-49991016D01*
X55951648Y-49986583D01*
X55956415Y-49900808D01*
X55975455Y-49832650D01*
X56017462Y-49780096D01*
X56091133Y-49741131D01*
X56205164Y-49713742D01*
X56368250Y-49695916D01*
X56589088Y-49685638D01*
X56876373Y-49680895D01*
X57238802Y-49679673D01*
X57277027Y-49679667D01*
X57610938Y-49680166D01*
G36*
X61042752Y-49686240D02*
X61228749Y-49689310D01*
X61352539Y-49694035D01*
X61397674Y-49698767D01*
X61535667Y-49770807D01*
X61610931Y-49897942D01*
X61623666Y-49997790D01*
X61609512Y-50108394D01*
X61559451Y-50185928D01*
X61462085Y-50235586D01*
X61306015Y-50262569D01*
X61079843Y-50272072D01*
X61021580Y-50272333D01*
X60607666Y-50272333D01*
X60607666Y-52770000D01*
X61021580Y-52770000D01*
X61264990Y-52776660D01*
X61435680Y-52799937D01*
X61544788Y-52844775D01*
X61603453Y-52916118D01*
X61622814Y-53018911D01*
X61623018Y-53036984D01*
X61618734Y-53128951D01*
X61600995Y-53201791D01*
X61560999Y-53257695D01*
X61489946Y-53298852D01*
X61379033Y-53327452D01*
X61219460Y-53345684D01*
X61002424Y-53355738D01*
X60719125Y-53359803D01*
X60360760Y-53360070D01*
X60324699Y-53359983D01*
X60029934Y-53357727D01*
X59759290Y-53352813D01*
X59525568Y-53345699D01*
X59341573Y-53336846D01*
X59220106Y-53326715D01*
X59178300Y-53318786D01*
X59077790Y-53238990D01*
X59029681Y-53119463D01*
X59034780Y-52987599D01*
X59093887Y-52870793D01*
X59163523Y-52814907D01*
X59241327Y-52795256D01*
X59380039Y-52779972D01*
X59555926Y-52771233D01*
X59652383Y-52770000D01*
X60057333Y-52770000D01*
X60057333Y-50272333D01*
X59638689Y-50272333D01*
X59392528Y-50264741D01*
X59219139Y-50238525D01*
X59107703Y-50188523D01*
X59047404Y-50109573D01*
X59027424Y-49996515D01*
X59027222Y-49980581D01*
X59029721Y-49899852D01*
X59043309Y-49836336D01*
X59077119Y-49787828D01*
X59140283Y-49752121D01*
X59241935Y-49727008D01*
X59391207Y-49710284D01*
X59597234Y-49699743D01*
X59869148Y-49693177D01*
X60216082Y-49688381D01*
X60237904Y-49688121D01*
X60534690Y-49685529D01*
X60807186Y-49684941D01*
X61042752Y-49686240D01*
X61042752Y-49686240D01*
G37*
X61042752Y-49686240D02*
X61228749Y-49689310D01*
X61352539Y-49694035D01*
X61397674Y-49698767D01*
X61535667Y-49770807D01*
X61610931Y-49897942D01*
X61623666Y-49997790D01*
X61609512Y-50108394D01*
X61559451Y-50185928D01*
X61462085Y-50235586D01*
X61306015Y-50262569D01*
X61079843Y-50272072D01*
X61021580Y-50272333D01*
X60607666Y-50272333D01*
X60607666Y-52770000D01*
X61021580Y-52770000D01*
X61264990Y-52776660D01*
X61435680Y-52799937D01*
X61544788Y-52844775D01*
X61603453Y-52916118D01*
X61622814Y-53018911D01*
X61623018Y-53036984D01*
X61618734Y-53128951D01*
X61600995Y-53201791D01*
X61560999Y-53257695D01*
X61489946Y-53298852D01*
X61379033Y-53327452D01*
X61219460Y-53345684D01*
X61002424Y-53355738D01*
X60719125Y-53359803D01*
X60360760Y-53360070D01*
X60324699Y-53359983D01*
X60029934Y-53357727D01*
X59759290Y-53352813D01*
X59525568Y-53345699D01*
X59341573Y-53336846D01*
X59220106Y-53326715D01*
X59178300Y-53318786D01*
X59077790Y-53238990D01*
X59029681Y-53119463D01*
X59034780Y-52987599D01*
X59093887Y-52870793D01*
X59163523Y-52814907D01*
X59241327Y-52795256D01*
X59380039Y-52779972D01*
X59555926Y-52771233D01*
X59652383Y-52770000D01*
X60057333Y-52770000D01*
X60057333Y-50272333D01*
X59638689Y-50272333D01*
X59392528Y-50264741D01*
X59219139Y-50238525D01*
X59107703Y-50188523D01*
X59047404Y-50109573D01*
X59027424Y-49996515D01*
X59027222Y-49980581D01*
X59029721Y-49899852D01*
X59043309Y-49836336D01*
X59077119Y-49787828D01*
X59140283Y-49752121D01*
X59241935Y-49727008D01*
X59391207Y-49710284D01*
X59597234Y-49699743D01*
X59869148Y-49693177D01*
X60216082Y-49688381D01*
X60237904Y-49688121D01*
X60534690Y-49685529D01*
X60807186Y-49684941D01*
X61042752Y-49686240D01*
G36*
X64505820Y-49704076D02*
X64597108Y-49763244D01*
X64602457Y-49767406D01*
X64714000Y-49855145D01*
X64714000Y-53187188D01*
X64602457Y-53274927D01*
X64492284Y-53345899D01*
X64402229Y-53351805D01*
X64298238Y-53292646D01*
X64275209Y-53274927D01*
X64212482Y-53215751D01*
X64178834Y-53146113D01*
X64165538Y-53038652D01*
X64163666Y-52925224D01*
X64163666Y-52663259D01*
X62682000Y-51183407D01*
X62682000Y-52162514D01*
X62681416Y-52479545D01*
X62679159Y-52722868D01*
X62674465Y-52903436D01*
X62666572Y-53032200D01*
X62654719Y-53120115D01*
X62638144Y-53178134D01*
X62616083Y-53217208D01*
X62607916Y-53227298D01*
X62479602Y-53321752D01*
X62333653Y-53337122D01*
X62272017Y-53319643D01*
X62177611Y-53254022D01*
X62134434Y-53198504D01*
X62121018Y-53129182D01*
X62109919Y-52976468D01*
X62101169Y-52741605D01*
X62094802Y-52425835D01*
X62090850Y-52030404D01*
X62089347Y-51556553D01*
X62089333Y-51500859D01*
X62089333Y-49887485D01*
X62193242Y-49783576D01*
X62319752Y-49696579D01*
X62443886Y-49693972D01*
X62570120Y-49775753D01*
X62578090Y-49783576D01*
X62640138Y-49861155D01*
X62671611Y-49953758D01*
X62681725Y-50092404D01*
X62682000Y-50133279D01*
X62682000Y-50379074D01*
X64163666Y-51858926D01*
X64163666Y-49855145D01*
X64275209Y-49767406D01*
X64366702Y-49706834D01*
X64436237Y-49679765D01*
X64438833Y-49679667D01*
X64505820Y-49704076D01*
X64505820Y-49704076D01*
G37*
X64505820Y-49704076D02*
X64597108Y-49763244D01*
X64602457Y-49767406D01*
X64714000Y-49855145D01*
X64714000Y-53187188D01*
X64602457Y-53274927D01*
X64492284Y-53345899D01*
X64402229Y-53351805D01*
X64298238Y-53292646D01*
X64275209Y-53274927D01*
X64212482Y-53215751D01*
X64178834Y-53146113D01*
X64165538Y-53038652D01*
X64163666Y-52925224D01*
X64163666Y-52663259D01*
X62682000Y-51183407D01*
X62682000Y-52162514D01*
X62681416Y-52479545D01*
X62679159Y-52722868D01*
X62674465Y-52903436D01*
X62666572Y-53032200D01*
X62654719Y-53120115D01*
X62638144Y-53178134D01*
X62616083Y-53217208D01*
X62607916Y-53227298D01*
X62479602Y-53321752D01*
X62333653Y-53337122D01*
X62272017Y-53319643D01*
X62177611Y-53254022D01*
X62134434Y-53198504D01*
X62121018Y-53129182D01*
X62109919Y-52976468D01*
X62101169Y-52741605D01*
X62094802Y-52425835D01*
X62090850Y-52030404D01*
X62089347Y-51556553D01*
X62089333Y-51500859D01*
X62089333Y-49887485D01*
X62193242Y-49783576D01*
X62319752Y-49696579D01*
X62443886Y-49693972D01*
X62570120Y-49775753D01*
X62578090Y-49783576D01*
X62640138Y-49861155D01*
X62671611Y-49953758D01*
X62681725Y-50092404D01*
X62682000Y-50133279D01*
X62682000Y-50379074D01*
X64163666Y-51858926D01*
X64163666Y-49855145D01*
X64275209Y-49767406D01*
X64366702Y-49706834D01*
X64436237Y-49679765D01*
X64438833Y-49679667D01*
X64505820Y-49704076D01*
G36*
X67452361Y-50031638D02*
X67626926Y-50213795D01*
X67739928Y-50354218D01*
X67795759Y-50464261D01*
X67798811Y-50555278D01*
X67753476Y-50638623D01*
X67706354Y-50688287D01*
X67609677Y-50757975D01*
X67512958Y-50774174D01*
X67402485Y-50732883D01*
X67264547Y-50630100D01*
X67151490Y-50526333D01*
X66886975Y-50272333D01*
X66086294Y-50272333D01*
X65730000Y-50635371D01*
X65730000Y-52406962D01*
X66086294Y-52770000D01*
X66898150Y-52770000D01*
X67054908Y-52609465D01*
X67134144Y-52524363D01*
X67180843Y-52452743D01*
X67203599Y-52367909D01*
X67211008Y-52243168D01*
X67211666Y-52122632D01*
X67211666Y-51796333D01*
X66798916Y-51795685D01*
X66590816Y-51793419D01*
X66450030Y-51784165D01*
X66359229Y-51763068D01*
X66301089Y-51725278D01*
X66258282Y-51665941D01*
X66244337Y-51640366D01*
X66200004Y-51515894D01*
X66224022Y-51413343D01*
X66281982Y-51338649D01*
X66320234Y-51302838D01*
X66366842Y-51277659D01*
X66436270Y-51261252D01*
X66542981Y-51251754D01*
X66701440Y-51247303D01*
X66926109Y-51246037D01*
X67001649Y-51246000D01*
X67280693Y-51245987D01*
X67486326Y-51253269D01*
X67629725Y-51278829D01*
X67722065Y-51333649D01*
X67774522Y-51428712D01*
X67798271Y-51575000D01*
X67804489Y-51783496D01*
X67804333Y-52034796D01*
X67804333Y-52654259D01*
X67467674Y-52997879D01*
X67131014Y-53341500D01*
X66546924Y-53351003D01*
X66326422Y-53351922D01*
X66131013Y-53347789D01*
X65979032Y-53339348D01*
X65888816Y-53327340D01*
X65878166Y-53323913D01*
X65814048Y-53278988D01*
X65708850Y-53187112D01*
X65579180Y-53063308D01*
X65486583Y-52969672D01*
X65179666Y-52652024D01*
X65179666Y-50383609D01*
X65531638Y-50031638D01*
X65883609Y-49679667D01*
X67100390Y-49679667D01*
X67452361Y-50031638D01*
X67452361Y-50031638D01*
G37*
X67452361Y-50031638D02*
X67626926Y-50213795D01*
X67739928Y-50354218D01*
X67795759Y-50464261D01*
X67798811Y-50555278D01*
X67753476Y-50638623D01*
X67706354Y-50688287D01*
X67609677Y-50757975D01*
X67512958Y-50774174D01*
X67402485Y-50732883D01*
X67264547Y-50630100D01*
X67151490Y-50526333D01*
X66886975Y-50272333D01*
X66086294Y-50272333D01*
X65730000Y-50635371D01*
X65730000Y-52406962D01*
X66086294Y-52770000D01*
X66898150Y-52770000D01*
X67054908Y-52609465D01*
X67134144Y-52524363D01*
X67180843Y-52452743D01*
X67203599Y-52367909D01*
X67211008Y-52243168D01*
X67211666Y-52122632D01*
X67211666Y-51796333D01*
X66798916Y-51795685D01*
X66590816Y-51793419D01*
X66450030Y-51784165D01*
X66359229Y-51763068D01*
X66301089Y-51725278D01*
X66258282Y-51665941D01*
X66244337Y-51640366D01*
X66200004Y-51515894D01*
X66224022Y-51413343D01*
X66281982Y-51338649D01*
X66320234Y-51302838D01*
X66366842Y-51277659D01*
X66436270Y-51261252D01*
X66542981Y-51251754D01*
X66701440Y-51247303D01*
X66926109Y-51246037D01*
X67001649Y-51246000D01*
X67280693Y-51245987D01*
X67486326Y-51253269D01*
X67629725Y-51278829D01*
X67722065Y-51333649D01*
X67774522Y-51428712D01*
X67798271Y-51575000D01*
X67804489Y-51783496D01*
X67804333Y-52034796D01*
X67804333Y-52654259D01*
X67467674Y-52997879D01*
X67131014Y-53341500D01*
X66546924Y-53351003D01*
X66326422Y-53351922D01*
X66131013Y-53347789D01*
X65979032Y-53339348D01*
X65888816Y-53327340D01*
X65878166Y-53323913D01*
X65814048Y-53278988D01*
X65708850Y-53187112D01*
X65579180Y-53063308D01*
X65486583Y-52969672D01*
X65179666Y-52652024D01*
X65179666Y-50383609D01*
X65531638Y-50031638D01*
X65883609Y-49679667D01*
X67100390Y-49679667D01*
X67452361Y-50031638D01*
G36*
X71448885Y-49684965D02*
X71560801Y-49691928D01*
X71637475Y-49704492D01*
X71691258Y-49723633D01*
X71734501Y-49750326D01*
X71753810Y-49765061D01*
X71846922Y-49883534D01*
X71865656Y-50019451D01*
X71808833Y-50150117D01*
X71775684Y-50186017D01*
X71737212Y-50216826D01*
X71689175Y-50239308D01*
X71618629Y-50254763D01*
X71512631Y-50264492D01*
X71358237Y-50269794D01*
X71142504Y-50271970D01*
X70916442Y-50272333D01*
X70149849Y-50272333D01*
X69993091Y-50432868D01*
X69871733Y-50588792D01*
X69830033Y-50734083D01*
X69868425Y-50879793D01*
X69987337Y-51036973D01*
X70017852Y-51067852D01*
X70199371Y-51246000D01*
X71206393Y-51246000D01*
X71537363Y-51576970D01*
X71868333Y-51907939D01*
X71868333Y-52670315D01*
X71159011Y-53362667D01*
X70338922Y-53359983D01*
X70078180Y-53357274D01*
X69841827Y-53351333D01*
X69644748Y-53342813D01*
X69501828Y-53332365D01*
X69427950Y-53320640D01*
X69426350Y-53320038D01*
X69305916Y-53234346D01*
X69253818Y-53114489D01*
X69273660Y-52980872D01*
X69347575Y-52873909D01*
X69387255Y-52836750D01*
X69429610Y-52809709D01*
X69487879Y-52791178D01*
X69575300Y-52779549D01*
X69705108Y-52773216D01*
X69890542Y-52770570D01*
X70144840Y-52770005D01*
X70203223Y-52770000D01*
X70954961Y-52770000D01*
X71136480Y-52591852D01*
X71251185Y-52464726D01*
X71306976Y-52360066D01*
X71318000Y-52283166D01*
X71297764Y-52180818D01*
X71228369Y-52072590D01*
X71136480Y-51974481D01*
X70954961Y-51796333D01*
X69936018Y-51796333D01*
X69589842Y-51441672D01*
X69243666Y-51087012D01*
X69243666Y-50388074D01*
X69580350Y-50044454D01*
X69917033Y-49700833D01*
X70778160Y-49687905D01*
X71069916Y-49683930D01*
X71289373Y-49682624D01*
X71448885Y-49684965D01*
X71448885Y-49684965D01*
G37*
X71448885Y-49684965D02*
X71560801Y-49691928D01*
X71637475Y-49704492D01*
X71691258Y-49723633D01*
X71734501Y-49750326D01*
X71753810Y-49765061D01*
X71846922Y-49883534D01*
X71865656Y-50019451D01*
X71808833Y-50150117D01*
X71775684Y-50186017D01*
X71737212Y-50216826D01*
X71689175Y-50239308D01*
X71618629Y-50254763D01*
X71512631Y-50264492D01*
X71358237Y-50269794D01*
X71142504Y-50271970D01*
X70916442Y-50272333D01*
X70149849Y-50272333D01*
X69993091Y-50432868D01*
X69871733Y-50588792D01*
X69830033Y-50734083D01*
X69868425Y-50879793D01*
X69987337Y-51036973D01*
X70017852Y-51067852D01*
X70199371Y-51246000D01*
X71206393Y-51246000D01*
X71537363Y-51576970D01*
X71868333Y-51907939D01*
X71868333Y-52670315D01*
X71159011Y-53362667D01*
X70338922Y-53359983D01*
X70078180Y-53357274D01*
X69841827Y-53351333D01*
X69644748Y-53342813D01*
X69501828Y-53332365D01*
X69427950Y-53320640D01*
X69426350Y-53320038D01*
X69305916Y-53234346D01*
X69253818Y-53114489D01*
X69273660Y-52980872D01*
X69347575Y-52873909D01*
X69387255Y-52836750D01*
X69429610Y-52809709D01*
X69487879Y-52791178D01*
X69575300Y-52779549D01*
X69705108Y-52773216D01*
X69890542Y-52770570D01*
X70144840Y-52770005D01*
X70203223Y-52770000D01*
X70954961Y-52770000D01*
X71136480Y-52591852D01*
X71251185Y-52464726D01*
X71306976Y-52360066D01*
X71318000Y-52283166D01*
X71297764Y-52180818D01*
X71228369Y-52072590D01*
X71136480Y-51974481D01*
X70954961Y-51796333D01*
X69936018Y-51796333D01*
X69589842Y-51441672D01*
X69243666Y-51087012D01*
X69243666Y-50388074D01*
X69580350Y-50044454D01*
X69917033Y-49700833D01*
X70778160Y-49687905D01*
X71069916Y-49683930D01*
X71289373Y-49682624D01*
X71448885Y-49684965D01*
G36*
X74854757Y-49783576D02*
X74941858Y-49914626D01*
X74947576Y-50044785D01*
X74872118Y-50163153D01*
X74847124Y-50184594D01*
X74780509Y-50227254D01*
X74698866Y-50253637D01*
X74581136Y-50267381D01*
X74406259Y-50272122D01*
X74339124Y-50272333D01*
X73942666Y-50272333D01*
X73942666Y-52770000D01*
X74358620Y-52770000D01*
X74553082Y-52771688D01*
X74682317Y-52779250D01*
X74765739Y-52796428D01*
X74822761Y-52826968D01*
X74866620Y-52867978D01*
X74946300Y-52998566D01*
X74941483Y-53132184D01*
X74877798Y-53241560D01*
X74851859Y-53271626D01*
X74821764Y-53295078D01*
X74777311Y-53312873D01*
X74708296Y-53325970D01*
X74604518Y-53335325D01*
X74455772Y-53341896D01*
X74251857Y-53346641D01*
X73982569Y-53350516D01*
X73679459Y-53354012D01*
X73342534Y-53357544D01*
X73079749Y-53359249D01*
X72880584Y-53358466D01*
X72734521Y-53354537D01*
X72631041Y-53346802D01*
X72559624Y-53334603D01*
X72509751Y-53317281D01*
X72470904Y-53294176D01*
X72447994Y-53276856D01*
X72354447Y-53158603D01*
X72338846Y-53024596D01*
X72401923Y-52893816D01*
X72431978Y-52862046D01*
X72487386Y-52818691D01*
X72554888Y-52791431D01*
X72654388Y-52776661D01*
X72805788Y-52770772D01*
X72939978Y-52770000D01*
X73350000Y-52770000D01*
X73350000Y-50272333D01*
X72953542Y-50272333D01*
X72757294Y-50269593D01*
X72624546Y-50258948D01*
X72534237Y-50236760D01*
X72465307Y-50199392D01*
X72445542Y-50184594D01*
X72351722Y-50066714D01*
X72334000Y-49976000D01*
X72374684Y-49842345D01*
X72445542Y-49767406D01*
X72483280Y-49740712D01*
X72527377Y-49720055D01*
X72588454Y-49704663D01*
X72677133Y-49693766D01*
X72804037Y-49686592D01*
X72979788Y-49682370D01*
X73215007Y-49680329D01*
X73520318Y-49679697D01*
X73653966Y-49679667D01*
X74750848Y-49679667D01*
X74854757Y-49783576D01*
X74854757Y-49783576D01*
G37*
X74854757Y-49783576D02*
X74941858Y-49914626D01*
X74947576Y-50044785D01*
X74872118Y-50163153D01*
X74847124Y-50184594D01*
X74780509Y-50227254D01*
X74698866Y-50253637D01*
X74581136Y-50267381D01*
X74406259Y-50272122D01*
X74339124Y-50272333D01*
X73942666Y-50272333D01*
X73942666Y-52770000D01*
X74358620Y-52770000D01*
X74553082Y-52771688D01*
X74682317Y-52779250D01*
X74765739Y-52796428D01*
X74822761Y-52826968D01*
X74866620Y-52867978D01*
X74946300Y-52998566D01*
X74941483Y-53132184D01*
X74877798Y-53241560D01*
X74851859Y-53271626D01*
X74821764Y-53295078D01*
X74777311Y-53312873D01*
X74708296Y-53325970D01*
X74604518Y-53335325D01*
X74455772Y-53341896D01*
X74251857Y-53346641D01*
X73982569Y-53350516D01*
X73679459Y-53354012D01*
X73342534Y-53357544D01*
X73079749Y-53359249D01*
X72880584Y-53358466D01*
X72734521Y-53354537D01*
X72631041Y-53346802D01*
X72559624Y-53334603D01*
X72509751Y-53317281D01*
X72470904Y-53294176D01*
X72447994Y-53276856D01*
X72354447Y-53158603D01*
X72338846Y-53024596D01*
X72401923Y-52893816D01*
X72431978Y-52862046D01*
X72487386Y-52818691D01*
X72554888Y-52791431D01*
X72654388Y-52776661D01*
X72805788Y-52770772D01*
X72939978Y-52770000D01*
X73350000Y-52770000D01*
X73350000Y-50272333D01*
X72953542Y-50272333D01*
X72757294Y-50269593D01*
X72624546Y-50258948D01*
X72534237Y-50236760D01*
X72465307Y-50199392D01*
X72445542Y-50184594D01*
X72351722Y-50066714D01*
X72334000Y-49976000D01*
X72374684Y-49842345D01*
X72445542Y-49767406D01*
X72483280Y-49740712D01*
X72527377Y-49720055D01*
X72588454Y-49704663D01*
X72677133Y-49693766D01*
X72804037Y-49686592D01*
X72979788Y-49682370D01*
X73215007Y-49680329D01*
X73520318Y-49679697D01*
X73653966Y-49679667D01*
X74750848Y-49679667D01*
X74854757Y-49783576D01*
G36*
X76757899Y-49687095D02*
X77375680Y-49700833D01*
X77712340Y-50044454D01*
X77878341Y-50220557D01*
X77984579Y-50354222D01*
X78035673Y-50457992D01*
X78036244Y-50544412D01*
X77990913Y-50626028D01*
X77945090Y-50676424D01*
X77851137Y-50750791D01*
X77758806Y-50772391D01*
X77653995Y-50737366D01*
X77522602Y-50641862D01*
X77396157Y-50526333D01*
X77131642Y-50272333D01*
X76330961Y-50272333D01*
X76152814Y-50453852D01*
X75974666Y-50635371D01*
X75974666Y-52406962D01*
X76152814Y-52588481D01*
X76330961Y-52770000D01*
X77142817Y-52770000D01*
X77299575Y-52609465D01*
X77378811Y-52524363D01*
X77425510Y-52452743D01*
X77448266Y-52367909D01*
X77455675Y-52243168D01*
X77456333Y-52122632D01*
X77456333Y-51796333D01*
X77033000Y-51796333D01*
X76833219Y-51794217D01*
X76699330Y-51785789D01*
X76612616Y-51767929D01*
X76554362Y-51737520D01*
X76525000Y-51711667D01*
X76460952Y-51610815D01*
X76440333Y-51521167D01*
X76469776Y-51411664D01*
X76525000Y-51330667D01*
X76564941Y-51297555D01*
X76617143Y-51274383D01*
X76696137Y-51259429D01*
X76816454Y-51250970D01*
X76992624Y-51247286D01*
X77234083Y-51246648D01*
X77457835Y-51248896D01*
X77652619Y-51254642D01*
X77802175Y-51263118D01*
X77890243Y-51273554D01*
X77905079Y-51278398D01*
X77961177Y-51332743D01*
X78001323Y-51417548D01*
X78027781Y-51545330D01*
X78042814Y-51728607D01*
X78048686Y-51979896D01*
X78049000Y-52074346D01*
X78049000Y-52654259D01*
X77712340Y-52997879D01*
X77375680Y-53341500D01*
X76757899Y-53355238D01*
X76140119Y-53368976D01*
X75782226Y-53019646D01*
X75424333Y-52670315D01*
X75424333Y-50372018D01*
X75782226Y-50022687D01*
X76140119Y-49673358D01*
X76757899Y-49687095D01*
X76757899Y-49687095D01*
G37*
X76757899Y-49687095D02*
X77375680Y-49700833D01*
X77712340Y-50044454D01*
X77878341Y-50220557D01*
X77984579Y-50354222D01*
X78035673Y-50457992D01*
X78036244Y-50544412D01*
X77990913Y-50626028D01*
X77945090Y-50676424D01*
X77851137Y-50750791D01*
X77758806Y-50772391D01*
X77653995Y-50737366D01*
X77522602Y-50641862D01*
X77396157Y-50526333D01*
X77131642Y-50272333D01*
X76330961Y-50272333D01*
X76152814Y-50453852D01*
X75974666Y-50635371D01*
X75974666Y-52406962D01*
X76152814Y-52588481D01*
X76330961Y-52770000D01*
X77142817Y-52770000D01*
X77299575Y-52609465D01*
X77378811Y-52524363D01*
X77425510Y-52452743D01*
X77448266Y-52367909D01*
X77455675Y-52243168D01*
X77456333Y-52122632D01*
X77456333Y-51796333D01*
X77033000Y-51796333D01*
X76833219Y-51794217D01*
X76699330Y-51785789D01*
X76612616Y-51767929D01*
X76554362Y-51737520D01*
X76525000Y-51711667D01*
X76460952Y-51610815D01*
X76440333Y-51521167D01*
X76469776Y-51411664D01*
X76525000Y-51330667D01*
X76564941Y-51297555D01*
X76617143Y-51274383D01*
X76696137Y-51259429D01*
X76816454Y-51250970D01*
X76992624Y-51247286D01*
X77234083Y-51246648D01*
X77457835Y-51248896D01*
X77652619Y-51254642D01*
X77802175Y-51263118D01*
X77890243Y-51273554D01*
X77905079Y-51278398D01*
X77961177Y-51332743D01*
X78001323Y-51417548D01*
X78027781Y-51545330D01*
X78042814Y-51728607D01*
X78048686Y-51979896D01*
X78049000Y-52074346D01*
X78049000Y-52654259D01*
X77712340Y-52997879D01*
X77375680Y-53341500D01*
X76757899Y-53355238D01*
X76140119Y-53368976D01*
X75782226Y-53019646D01*
X75424333Y-52670315D01*
X75424333Y-50372018D01*
X75782226Y-50022687D01*
X76140119Y-49673358D01*
X76757899Y-49687095D01*
G36*
X80942064Y-49715933D02*
X81046354Y-49810376D01*
X81080388Y-49874539D01*
X81095545Y-49953465D01*
X81108701Y-50104869D01*
X81119803Y-50316587D01*
X81128801Y-50576453D01*
X81135641Y-50872303D01*
X81140274Y-51191972D01*
X81142646Y-51523293D01*
X81142707Y-51854102D01*
X81140405Y-52172234D01*
X81135688Y-52465523D01*
X81128505Y-52721805D01*
X81118804Y-52928914D01*
X81106533Y-53074684D01*
X81094252Y-53140685D01*
X81018014Y-53259557D01*
X80903496Y-53331300D01*
X80777608Y-53342782D01*
X80720811Y-53322908D01*
X80623905Y-53243298D01*
X80568379Y-53121351D01*
X80547348Y-52939900D01*
X80546666Y-52888746D01*
X80546666Y-52663259D01*
X79065000Y-51183407D01*
X79065000Y-52162514D01*
X79064416Y-52479545D01*
X79062159Y-52722868D01*
X79057465Y-52903436D01*
X79049572Y-53032200D01*
X79037719Y-53120115D01*
X79021144Y-53178134D01*
X78999083Y-53217208D01*
X78990916Y-53227298D01*
X78865006Y-53320777D01*
X78724666Y-53334830D01*
X78654483Y-53311581D01*
X78574139Y-53240613D01*
X78516900Y-53139210D01*
X78504155Y-53058476D01*
X78493362Y-52898014D01*
X78484652Y-52662743D01*
X78478160Y-52357580D01*
X78474018Y-51987445D01*
X78472359Y-51557256D01*
X78472333Y-51491580D01*
X78472780Y-51063182D01*
X78474807Y-50711549D01*
X78479440Y-50428781D01*
X78487705Y-50206978D01*
X78500630Y-50038240D01*
X78519242Y-49914668D01*
X78544566Y-49828361D01*
X78577629Y-49771420D01*
X78619459Y-49735944D01*
X78671083Y-49714034D01*
X78704557Y-49704769D01*
X78853381Y-49700979D01*
X78964752Y-49771078D01*
X79036027Y-49911776D01*
X79064565Y-50119781D01*
X79065000Y-50153587D01*
X79065000Y-50379074D01*
X79805045Y-51118213D01*
X80545090Y-51857351D01*
X80556461Y-50847128D01*
X80567833Y-49836904D01*
X80676772Y-49755602D01*
X80813400Y-49696063D01*
X80942064Y-49715933D01*
X80942064Y-49715933D01*
G37*
X80942064Y-49715933D02*
X81046354Y-49810376D01*
X81080388Y-49874539D01*
X81095545Y-49953465D01*
X81108701Y-50104869D01*
X81119803Y-50316587D01*
X81128801Y-50576453D01*
X81135641Y-50872303D01*
X81140274Y-51191972D01*
X81142646Y-51523293D01*
X81142707Y-51854102D01*
X81140405Y-52172234D01*
X81135688Y-52465523D01*
X81128505Y-52721805D01*
X81118804Y-52928914D01*
X81106533Y-53074684D01*
X81094252Y-53140685D01*
X81018014Y-53259557D01*
X80903496Y-53331300D01*
X80777608Y-53342782D01*
X80720811Y-53322908D01*
X80623905Y-53243298D01*
X80568379Y-53121351D01*
X80547348Y-52939900D01*
X80546666Y-52888746D01*
X80546666Y-52663259D01*
X79065000Y-51183407D01*
X79065000Y-52162514D01*
X79064416Y-52479545D01*
X79062159Y-52722868D01*
X79057465Y-52903436D01*
X79049572Y-53032200D01*
X79037719Y-53120115D01*
X79021144Y-53178134D01*
X78999083Y-53217208D01*
X78990916Y-53227298D01*
X78865006Y-53320777D01*
X78724666Y-53334830D01*
X78654483Y-53311581D01*
X78574139Y-53240613D01*
X78516900Y-53139210D01*
X78504155Y-53058476D01*
X78493362Y-52898014D01*
X78484652Y-52662743D01*
X78478160Y-52357580D01*
X78474018Y-51987445D01*
X78472359Y-51557256D01*
X78472333Y-51491580D01*
X78472780Y-51063182D01*
X78474807Y-50711549D01*
X78479440Y-50428781D01*
X78487705Y-50206978D01*
X78500630Y-50038240D01*
X78519242Y-49914668D01*
X78544566Y-49828361D01*
X78577629Y-49771420D01*
X78619459Y-49735944D01*
X78671083Y-49714034D01*
X78704557Y-49704769D01*
X78853381Y-49700979D01*
X78964752Y-49771078D01*
X79036027Y-49911776D01*
X79064565Y-50119781D01*
X79065000Y-50153587D01*
X79065000Y-50379074D01*
X79805045Y-51118213D01*
X80545090Y-51857351D01*
X80556461Y-50847128D01*
X80567833Y-49836904D01*
X80676772Y-49755602D01*
X80813400Y-49696063D01*
X80942064Y-49715933D01*
G36*
X83835361Y-50031638D02*
X84187333Y-50383609D01*
X84187333Y-51748921D01*
X84185882Y-52177868D01*
X84181592Y-52536108D01*
X84174553Y-52820684D01*
X84164857Y-53028637D01*
X84152596Y-53157008D01*
X84142426Y-53198143D01*
X84049612Y-53291773D01*
X83916270Y-53338830D01*
X83809181Y-53333344D01*
X83733468Y-53299049D01*
X83677116Y-53234184D01*
X83637594Y-53128128D01*
X83612369Y-52970256D01*
X83598909Y-52749946D01*
X83594682Y-52456576D01*
X83594666Y-52433435D01*
X83594666Y-51796333D01*
X82113000Y-51796333D01*
X82112351Y-52484250D01*
X82110298Y-52719229D01*
X82105040Y-52925572D01*
X82097241Y-53087921D01*
X82087566Y-53190921D01*
X82080601Y-53218746D01*
X82015037Y-53277387D01*
X81917025Y-53333760D01*
X81831904Y-53362320D01*
X81825158Y-53362667D01*
X81767544Y-53338614D01*
X81680966Y-53280188D01*
X81674209Y-53274927D01*
X81562666Y-53187188D01*
X81562666Y-50272333D01*
X82113000Y-50272333D01*
X82113000Y-51246000D01*
X83594666Y-51246000D01*
X83594666Y-50919701D01*
X83592765Y-50752821D01*
X83581333Y-50643908D01*
X83551774Y-50566269D01*
X83495492Y-50493209D01*
X83437908Y-50432868D01*
X83281150Y-50272333D01*
X82113000Y-50272333D01*
X81562666Y-50272333D01*
X81562666Y-49855145D01*
X81674209Y-49767406D01*
X81717247Y-49737453D01*
X81767744Y-49715201D01*
X81838133Y-49699512D01*
X81940850Y-49689253D01*
X82088329Y-49683285D01*
X82293004Y-49680474D01*
X82567312Y-49679682D01*
X82634570Y-49679667D01*
X83483390Y-49679667D01*
X83835361Y-50031638D01*
X83835361Y-50031638D01*
G37*
X83835361Y-50031638D02*
X84187333Y-50383609D01*
X84187333Y-51748921D01*
X84185882Y-52177868D01*
X84181592Y-52536108D01*
X84174553Y-52820684D01*
X84164857Y-53028637D01*
X84152596Y-53157008D01*
X84142426Y-53198143D01*
X84049612Y-53291773D01*
X83916270Y-53338830D01*
X83809181Y-53333344D01*
X83733468Y-53299049D01*
X83677116Y-53234184D01*
X83637594Y-53128128D01*
X83612369Y-52970256D01*
X83598909Y-52749946D01*
X83594682Y-52456576D01*
X83594666Y-52433435D01*
X83594666Y-51796333D01*
X82113000Y-51796333D01*
X82112351Y-52484250D01*
X82110298Y-52719229D01*
X82105040Y-52925572D01*
X82097241Y-53087921D01*
X82087566Y-53190921D01*
X82080601Y-53218746D01*
X82015037Y-53277387D01*
X81917025Y-53333760D01*
X81831904Y-53362320D01*
X81825158Y-53362667D01*
X81767544Y-53338614D01*
X81680966Y-53280188D01*
X81674209Y-53274927D01*
X81562666Y-53187188D01*
X81562666Y-50272333D01*
X82113000Y-50272333D01*
X82113000Y-51246000D01*
X83594666Y-51246000D01*
X83594666Y-50919701D01*
X83592765Y-50752821D01*
X83581333Y-50643908D01*
X83551774Y-50566269D01*
X83495492Y-50493209D01*
X83437908Y-50432868D01*
X83281150Y-50272333D01*
X82113000Y-50272333D01*
X81562666Y-50272333D01*
X81562666Y-49855145D01*
X81674209Y-49767406D01*
X81717247Y-49737453D01*
X81767744Y-49715201D01*
X81838133Y-49699512D01*
X81940850Y-49689253D01*
X82088329Y-49683285D01*
X82293004Y-49680474D01*
X82567312Y-49679682D01*
X82634570Y-49679667D01*
X83483390Y-49679667D01*
X83835361Y-50031638D01*
G36*
X85068761Y-49749687D02*
X85091790Y-49767406D01*
X85203333Y-49855145D01*
X85203333Y-52770000D01*
X87069848Y-52770000D01*
X87173757Y-52873909D01*
X87260821Y-52998721D01*
X87264656Y-53122216D01*
X87196798Y-53241560D01*
X87170859Y-53271626D01*
X87140764Y-53295078D01*
X87096311Y-53312873D01*
X87027296Y-53325970D01*
X86923518Y-53335325D01*
X86774772Y-53341896D01*
X86570857Y-53346641D01*
X86301569Y-53350516D01*
X85998459Y-53354012D01*
X85661534Y-53357544D01*
X85398749Y-53359249D01*
X85199584Y-53358466D01*
X85053521Y-53354537D01*
X84950041Y-53346802D01*
X84878624Y-53334603D01*
X84828751Y-53317281D01*
X84789904Y-53294176D01*
X84766994Y-53276856D01*
X84653000Y-53187188D01*
X84653000Y-49855145D01*
X84764542Y-49767406D01*
X84874715Y-49696434D01*
X84964770Y-49690528D01*
X85068761Y-49749687D01*
X85068761Y-49749687D01*
G37*
X85068761Y-49749687D02*
X85091790Y-49767406D01*
X85203333Y-49855145D01*
X85203333Y-52770000D01*
X87069848Y-52770000D01*
X87173757Y-52873909D01*
X87260821Y-52998721D01*
X87264656Y-53122216D01*
X87196798Y-53241560D01*
X87170859Y-53271626D01*
X87140764Y-53295078D01*
X87096311Y-53312873D01*
X87027296Y-53325970D01*
X86923518Y-53335325D01*
X86774772Y-53341896D01*
X86570857Y-53346641D01*
X86301569Y-53350516D01*
X85998459Y-53354012D01*
X85661534Y-53357544D01*
X85398749Y-53359249D01*
X85199584Y-53358466D01*
X85053521Y-53354537D01*
X84950041Y-53346802D01*
X84878624Y-53334603D01*
X84828751Y-53317281D01*
X84789904Y-53294176D01*
X84766994Y-53276856D01*
X84653000Y-53187188D01*
X84653000Y-49855145D01*
X84764542Y-49767406D01*
X84874715Y-49696434D01*
X84964770Y-49690528D01*
X85068761Y-49749687D01*
D12*
X103000000Y-51500000D03*
D13*
X105540000Y-51500000D03*
D14*
X100000000Y-73000000D03*
D15*
X100000000Y-68500000D03*
D16*
X100000000Y-73000000D03*
D14*
X85000000Y-88000000D03*
D15*
X85000000Y-83500000D03*
D16*
X85000000Y-88000000D03*
D14*
X115000000Y-88000000D03*
D15*
X115000000Y-83500000D03*
D16*
X115000000Y-88000000D03*
D14*
X70000000Y-100000000D03*
D15*
X70000000Y-95500000D03*
D16*
X70000000Y-100000000D03*
D14*
X100000000Y-100000000D03*
D15*
X100000000Y-95500000D03*
D16*
X100000000Y-100000000D03*
D14*
X130000000Y-100000000D03*
D15*
X130000000Y-95500000D03*
D16*
X130000000Y-100000000D03*
D14*
X85000000Y-115000000D03*
D15*
X85000000Y-110500000D03*
D16*
X85000000Y-115000000D03*
D14*
X115000000Y-115000000D03*
D15*
X115000000Y-110500000D03*
D16*
X115000000Y-115000000D03*
D14*
X100000000Y-127000000D03*
D15*
X100000000Y-122500000D03*
D16*
X100000000Y-127000000D03*
D17*
X136500000Y-137500000D03*
X139000000Y-137500000D03*
X129000000Y-137500000D03*
X131500000Y-137500000D03*
D18*
X102250000Y-149500000D03*
X97750000Y-149500000D03*
D19*
X48000000Y-48000000D03*
D20*
X119000000Y-152000000D03*
D21*
X152020000Y-144380000D03*
X121540000Y-152000000D03*
X149480000Y-144380000D03*
X124080000Y-152000000D03*
X146940000Y-144380000D03*
X126620000Y-152000000D03*
X144400000Y-144380000D03*
X129160000Y-152000000D03*
X141860000Y-144380000D03*
X131700000Y-152000000D03*
X139320000Y-144380000D03*
X134240000Y-152000000D03*
X136780000Y-144380000D03*
X136780000Y-152000000D03*
X134240000Y-144380000D03*
X139320000Y-152000000D03*
X131700000Y-144380000D03*
X141860000Y-152000000D03*
X129160000Y-144380000D03*
X144400000Y-152000000D03*
X126620000Y-144380000D03*
X146940000Y-152000000D03*
X124080000Y-144380000D03*
X149480000Y-152000000D03*
X121540000Y-144380000D03*
X152020000Y-152000000D03*
X119000000Y-144380000D03*
D22*
X144500000Y-137500000D03*
D23*
X147040000Y-137500000D03*
X149580000Y-137500000D03*
X152120000Y-137500000D03*
D20*
X144500000Y-111000000D03*
D21*
X152120000Y-103380000D03*
X147040000Y-111000000D03*
X149580000Y-103380000D03*
X149580000Y-111000000D03*
X147040000Y-103380000D03*
X152120000Y-111000000D03*
X144500000Y-103380000D03*
D24*
X53000000Y-121000000D03*
X53000000Y-126000000D03*
X48000000Y-126000000D03*
X48000000Y-121000000D03*
X53000000Y-134000000D03*
X53000000Y-139000000D03*
X48000000Y-139000000D03*
X48000000Y-134000000D03*
X53000000Y-147000000D03*
X53000000Y-152000000D03*
X48000000Y-152000000D03*
X48000000Y-147000000D03*
D25*
X83000000Y-145500000D03*
X83000000Y-151500000D03*
X87700000Y-148500000D03*
D26*
X74000000Y-132000000D03*
D27*
X66380000Y-132000000D03*
D13*
X122500000Y-58500000D03*
X125000000Y-58500000D03*
X127500000Y-58500000D03*
D28*
X130300000Y-51500000D03*
X119700000Y-51500000D03*
D13*
X144000000Y-58500000D03*
X146500000Y-58500000D03*
X149000000Y-58500000D03*
D28*
X151800000Y-51500000D03*
X141200000Y-51500000D03*
D13*
X144000000Y-80500000D03*
X146500000Y-80500000D03*
X149000000Y-80500000D03*
D28*
X151800000Y-73500000D03*
X141200000Y-73500000D03*
D29*
X151700000Y-92100000D03*
X143600000Y-92100000D03*
X149400000Y-96800000D03*
D30*
X70000000Y-149460000D03*
X70000000Y-146920000D03*
D31*
X70000000Y-152000000D03*
D12*
X134500000Y-123000000D03*
D13*
X134500000Y-120460000D03*
D32*
X124000000Y-137500000D03*
X119120000Y-137500000D03*
D17*
X152000000Y-128500000D03*
D21*
X144380000Y-128500000D03*
D17*
X152000000Y-125000000D03*
D21*
X144380000Y-125000000D03*
D17*
X152000000Y-121500000D03*
D21*
X144380000Y-121500000D03*
D17*
X152000000Y-118000000D03*
D21*
X144380000Y-118000000D03*
D17*
X55500000Y-83500000D03*
D21*
X47880000Y-83500000D03*
D17*
X55500000Y-87500000D03*
D21*
X47880000Y-87500000D03*
D17*
X55500000Y-79500000D03*
D21*
X47880000Y-79500000D03*
D17*
X55500000Y-75500000D03*
D21*
X47880000Y-75500000D03*
D17*
X48000000Y-99000000D03*
X53000000Y-99000000D03*
X53000000Y-103000000D03*
X48000000Y-103000000D03*
X53000000Y-107000000D03*
X48000000Y-107000000D03*
D12*
X125500000Y-123000000D03*
D13*
X125500000Y-120460000D03*
D12*
X130000000Y-74500000D03*
D13*
X130000000Y-71960000D03*
D12*
X94500000Y-51500000D03*
D13*
X97040000Y-51500000D03*
D20*
X71000000Y-126000000D03*
D17*
X68500000Y-126000000D03*
D20*
X71000000Y-139000000D03*
D17*
X68500000Y-139000000D03*
D22*
X71500000Y-62500000D03*
D23*
X74040000Y-62500000D03*
M02*
