M48
;DRILL file {KiCad 4.0.6} date 12/17/17 22:53:42
;FORMAT={-:-/ absolute / inch / decimal}
FMAT,2
INCH,TZ
T1C0.016
T2C0.031
T3C0.035
T4C0.039
T5C0.043
T6C0.047
T7C0.079
T8C0.091
T9C0.130
%
G90
G05
M72
T1
X1.8898Y-1.8898
X2.5886Y-3.5236
X2.7559Y-3.937
X2.7559Y-4.7244
X2.9823Y-6.1122
X3.0807Y-6.1516
X3.3465Y-3.4646
X3.3465Y-4.5276
X3.7008Y-5.2854
X3.7008Y-5.3642
X3.7303Y-3.4252
X3.8484Y-2.2638
X3.9173Y-4.4488
X3.937Y-2.874
X3.937Y-3.937
X3.937Y-5.
X4.5276Y-3.4646
X4.5276Y-4.5276
X4.7047Y-4.9508
X4.7244Y-5.2165
X4.9409Y-5.9055
X4.9705Y-6.1417
X5.0295Y-5.8661
X5.0984Y-6.1122
X5.1181Y-3.937
X5.2854Y-5.5413
X5.3839Y-4.9606
X5.4921Y-6.0827
X5.502Y-3.9272
X5.5413Y-4.4291
X5.5906Y-2.687
X5.5906Y-5.1673
X5.6102Y-3.4252
X5.9843Y-5.2854
X6.1319Y-5.9154
X6.1713Y-4.7835
T2
X1.885Y-2.9724
X1.885Y-3.1299
X1.885Y-3.2874
X1.885Y-3.4449
X1.8898Y-3.8976
X1.8898Y-4.0551
X1.8898Y-4.2126
X2.0866Y-3.8976
X2.0866Y-4.0551
X2.0866Y-4.2126
X2.185Y-2.9724
X2.185Y-3.1299
X2.185Y-3.2874
X2.185Y-3.4449
X2.6969Y-4.9606
X2.6969Y-5.4724
X2.7559Y-5.7843
X2.7559Y-5.8843
X2.7559Y-5.9843
X2.7953Y-4.9606
X2.7953Y-5.4724
X4.685Y-5.6843
X4.685Y-5.9843
X4.6898Y-5.4134
X4.785Y-5.6843
X4.785Y-5.9843
X4.8819Y-5.4134
X4.885Y-5.6843
X4.885Y-5.9843
X4.985Y-5.6843
X4.985Y-5.9843
X5.0787Y-5.4134
X5.085Y-5.6843
X5.085Y-5.9843
X5.1772Y-5.4134
X5.185Y-5.6843
X5.185Y-5.9843
X5.285Y-5.6843
X5.285Y-5.9843
X5.374Y-5.4134
X5.385Y-5.6843
X5.385Y-5.9843
X5.4724Y-5.4134
X5.485Y-5.6843
X5.485Y-5.9843
X5.585Y-5.6843
X5.585Y-5.9843
X5.6843Y-4.6457
X5.6843Y-4.7835
X5.6843Y-4.9213
X5.6843Y-5.0591
X5.685Y-5.6843
X5.685Y-5.9843
X5.689Y-4.0701
X5.689Y-4.3701
X5.785Y-5.6843
X5.785Y-5.9843
X5.789Y-4.0701
X5.789Y-4.3701
X5.885Y-5.6843
X5.885Y-5.9843
X5.889Y-4.0701
X5.889Y-4.3701
X5.9843Y-4.6457
X5.9843Y-4.7835
X5.9843Y-4.9213
X5.9843Y-5.0591
X5.985Y-5.6843
X5.985Y-5.9843
X5.989Y-4.0701
X5.989Y-4.3701
T3
X3.7205Y-2.0276
X3.8205Y-2.0276
X4.0551Y-2.0276
X4.1551Y-2.0276
X4.9409Y-4.7425
X4.9409Y-4.8425
X5.1181Y-2.8331
X5.1181Y-2.9331
X5.2953Y-4.7425
X5.2953Y-4.8425
T4
X2.815Y-2.4606
X2.915Y-2.4606
X5.689Y-5.4134
X5.789Y-5.4134
X5.889Y-5.4134
X5.989Y-5.4134
T5
X1.8898Y-4.7638
X1.8898Y-4.9606
X1.8898Y-5.2756
X1.8898Y-5.4724
X1.8898Y-5.7874
X1.8898Y-5.9843
X2.0866Y-4.7638
X2.0866Y-4.9606
X2.0866Y-5.2756
X2.0866Y-5.4724
X2.0866Y-5.7874
X2.0866Y-5.9843
X2.6134Y-5.1969
X2.9134Y-5.1969
T6
X4.8228Y-2.3031
X4.9213Y-2.3031
X5.0197Y-2.3031
X5.6693Y-2.3031
X5.6693Y-3.1693
X5.7677Y-2.3031
X5.7677Y-3.1693
X5.8661Y-2.3031
X5.8661Y-3.1693
T7
X5.6535Y-3.626
X5.8819Y-3.811
X5.9724Y-3.626
T8
X4.7126Y-2.0276
X5.1299Y-2.0276
X5.5591Y-2.0276
X5.5591Y-2.8937
X5.9764Y-2.0276
X5.9764Y-2.8937
T9
X3.8484Y-5.8858
X4.0256Y-5.8858
T4
X3.2283Y-5.7283G85X3.3071Y-5.7283
G05
X3.2283Y-5.9646G85X3.3071Y-5.9646
G05
X3.4528Y-5.8858G85X3.4528Y-5.8071
G05
T0
M30
