G04 #@! TF.FileFunction,Soldermask,Bot*
%FSLAX46Y46*%
G04 Gerber Fmt 4.6, Leading zero omitted, Abs format (unit mm)*
G04 Created by KiCad (PCBNEW 4.0.6) date 12/17/17 22:53:38*
%MOMM*%
%LPD*%
G01*
G04 APERTURE LIST*
%ADD10C,0.100000*%
%ADD11R,2.200000X2.200000*%
%ADD12C,2.200000*%
%ADD13C,1.400000*%
%ADD14C,2.000000*%
%ADD15R,4.900000X4.900000*%
%ADD16C,0.900000*%
%ADD17R,2.000000X2.000000*%
%ADD18O,2.000000X2.000000*%
%ADD19R,2.100000X2.100000*%
%ADD20O,2.100000X2.100000*%
%ADD21C,2.150000*%
%ADD22R,3.900000X3.900000*%
%ADD23R,2.600000X2.600000*%
%ADD24O,2.600000X2.600000*%
%ADD25C,5.000000*%
%ADD26C,3.400000*%
%ADD27C,1.924000*%
%ADD28R,1.924000X1.924000*%
%ADD29C,1.900000*%
G04 APERTURE END LIST*
D10*
D11*
X103000000Y-51500000D03*
D12*
X105540000Y-51500000D03*
D13*
X100000000Y-73000000D03*
X85000000Y-88000000D03*
X115000000Y-88000000D03*
X70000000Y-100000000D03*
X100000000Y-100000000D03*
X130000000Y-100000000D03*
X85000000Y-115000000D03*
X115000000Y-115000000D03*
X100000000Y-127000000D03*
D14*
X136500000Y-137500000D03*
X139000000Y-137500000D03*
X129000000Y-137500000D03*
X131500000Y-137500000D03*
D15*
X102250000Y-149500000D03*
X97750000Y-149500000D03*
D16*
X48000000Y-48000000D03*
D17*
X119000000Y-152000000D03*
D18*
X152020000Y-144380000D03*
X121540000Y-152000000D03*
X149480000Y-144380000D03*
X124080000Y-152000000D03*
X146940000Y-144380000D03*
X126620000Y-152000000D03*
X144400000Y-144380000D03*
X129160000Y-152000000D03*
X141860000Y-144380000D03*
X131700000Y-152000000D03*
X139320000Y-144380000D03*
X134240000Y-152000000D03*
X136780000Y-144380000D03*
X136780000Y-152000000D03*
X134240000Y-144380000D03*
X139320000Y-152000000D03*
X131700000Y-144380000D03*
X141860000Y-152000000D03*
X129160000Y-144380000D03*
X144400000Y-152000000D03*
X126620000Y-144380000D03*
X146940000Y-152000000D03*
X124080000Y-144380000D03*
X149480000Y-152000000D03*
X121540000Y-144380000D03*
X152020000Y-152000000D03*
X119000000Y-144380000D03*
D19*
X144500000Y-137500000D03*
D20*
X147040000Y-137500000D03*
X149580000Y-137500000D03*
X152120000Y-137500000D03*
D17*
X144500000Y-111000000D03*
D18*
X152120000Y-103380000D03*
X147040000Y-111000000D03*
X149580000Y-103380000D03*
X149580000Y-111000000D03*
X147040000Y-103380000D03*
X152120000Y-111000000D03*
X144500000Y-103380000D03*
D21*
X53000000Y-121000000D03*
X53000000Y-126000000D03*
X48000000Y-126000000D03*
X48000000Y-121000000D03*
X53000000Y-134000000D03*
X53000000Y-139000000D03*
X48000000Y-139000000D03*
X48000000Y-134000000D03*
X53000000Y-147000000D03*
X53000000Y-152000000D03*
X48000000Y-152000000D03*
X48000000Y-147000000D03*
D22*
X83000000Y-145500000D03*
X83000000Y-151500000D03*
X87700000Y-148500000D03*
D23*
X74000000Y-132000000D03*
D24*
X66380000Y-132000000D03*
D12*
X122500000Y-58500000D03*
X125000000Y-58500000D03*
X127500000Y-58500000D03*
D25*
X130300000Y-51500000D03*
X119700000Y-51500000D03*
D12*
X144000000Y-58500000D03*
X146500000Y-58500000D03*
X149000000Y-58500000D03*
D25*
X151800000Y-51500000D03*
X141200000Y-51500000D03*
D12*
X144000000Y-80500000D03*
X146500000Y-80500000D03*
X149000000Y-80500000D03*
D25*
X151800000Y-73500000D03*
X141200000Y-73500000D03*
D26*
X151700000Y-92100000D03*
X143600000Y-92100000D03*
X149400000Y-96800000D03*
D27*
X70000000Y-149460000D03*
X70000000Y-146920000D03*
D28*
X70000000Y-152000000D03*
D11*
X134500000Y-123000000D03*
D12*
X134500000Y-120460000D03*
D29*
X124000000Y-137500000D03*
X119120000Y-137500000D03*
D14*
X152000000Y-128500000D03*
D18*
X144380000Y-128500000D03*
D14*
X152000000Y-125000000D03*
D18*
X144380000Y-125000000D03*
D14*
X152000000Y-121500000D03*
D18*
X144380000Y-121500000D03*
D14*
X152000000Y-118000000D03*
D18*
X144380000Y-118000000D03*
D14*
X55500000Y-83500000D03*
D18*
X47880000Y-83500000D03*
D14*
X55500000Y-87500000D03*
D18*
X47880000Y-87500000D03*
D14*
X55500000Y-79500000D03*
D18*
X47880000Y-79500000D03*
D14*
X55500000Y-75500000D03*
D18*
X47880000Y-75500000D03*
D14*
X48000000Y-99000000D03*
X53000000Y-99000000D03*
X53000000Y-103000000D03*
X48000000Y-103000000D03*
X53000000Y-107000000D03*
X48000000Y-107000000D03*
D11*
X125500000Y-123000000D03*
D12*
X125500000Y-120460000D03*
D11*
X130000000Y-74500000D03*
D12*
X130000000Y-71960000D03*
D11*
X94500000Y-51500000D03*
D12*
X97040000Y-51500000D03*
D17*
X71000000Y-126000000D03*
D14*
X68500000Y-126000000D03*
D17*
X71000000Y-139000000D03*
D14*
X68500000Y-139000000D03*
D19*
X71500000Y-62500000D03*
D20*
X74040000Y-62500000D03*
M02*
